<svg width="200" height="120" viewBox="0 0 200 120" fill="none" xmlns="http://www.w3.org/2000/svg">
<rect width="200" height="120" fill="white"/>
<path d="M41.5587 0H89.3899C96.0646 0 100.236 5.46229 98.6713 12.1425L76.3889 107.858C74.8249 114.537 68.1156 120 61.4413 120H13.6101C6.93544 120 2.76436 114.538 4.32872 107.858L26.6104 12.1425C28.1748 5.42767 34.8491 0 41.5234 0H41.5587Z" fill="#D10429"/>
<path d="M84.2611 0H138.888C145.514 0 142.511 5.46229 140.959 12.1425L118.839 107.858C117.286 114.537 117.769 120 111.144 120H56.52C49.8602 120 45.7536 114.538 47.3409 107.858L69.4606 12.1425C71.0132 5.42767 77.6383 0 84.2988 0H84.2642H84.2611Z" fill="#022E64"/>
<path d="M137.557 0H185.39C192.065 0 196.236 5.46229 194.671 12.1425L172.39 107.858C170.825 114.537 164.116 120 157.442 120H109.612C102.903 120 98.7662 114.538 100.331 107.858L122.612 12.1425C124.176 5.42767 130.851 0 137.525 0H137.56H137.557Z" fill="#076F74"/>
<path d="M130.027 90.7245H134.544L135.83 86.2981H131.347L130.027 90.7245ZM133.641 78.5429L132.077 83.7838C132.077 83.7838 133.78 82.8984 134.718 82.6151C135.656 82.4027 137.046 82.2255 137.046 82.2255L138.123 78.5784H133.606L133.641 78.5429ZM135.899 71.0364L134.405 76.0645C134.405 76.0645 136.073 75.2852 137.011 75.0382C137.95 74.7901 139.339 74.7193 139.339 74.7193L140.417 71.0719H135.934L135.899 71.0364ZM145.872 71.0364L140.034 90.6886H141.598L140.382 94.7608H138.818L138.436 96H132.876L133.259 94.7608H122L123.112 91.0077H124.259L130.166 71.0367L131.348 67H137.012L136.421 69.0182C136.421 69.0182 137.915 67.9206 139.375 67.5306C140.799 67.1416 149 67 149 67L147.784 71.0015H145.838L145.872 71.0364Z" fill="#FEFEFE"/>
<path d="M147.957 67.0003H153.955L154.024 69.2939C153.989 69.6819 154.299 69.8585 155.023 69.8585H156.23L155.127 73.6348H151.886C149.094 73.8466 148.025 72.6116 148.094 71.2352L147.991 67.0355L147.957 67.0003ZM148.695 84.9651H142.973L143.937 81.613H150.487L151.418 78.5427H144.972L146.075 74.7667H164L162.897 78.5427H156.864L155.934 81.613H161.966L160.966 84.9651H154.451L153.279 86.3767H155.933L156.588 90.6112C156.657 91.0347 156.657 91.317 156.795 91.4936C156.933 91.6348 157.726 91.7053 158.174 91.7053H158.967L157.726 95.8342H155.692C155.382 95.8342 154.899 95.7991 154.244 95.7991C153.624 95.7282 153.21 95.3753 152.796 95.1636C152.417 94.9873 151.866 94.5284 151.728 93.7169L151.107 89.4824L148.143 93.6463C147.212 94.9518 145.937 95.9753 143.765 95.9753H139.628L140.731 92.3051H142.317C142.765 92.3051 143.179 92.1291 143.49 91.9522C143.8 91.811 144.075 91.6699 144.351 91.2116L148.695 84.9651ZM86.1029 75.7801H101.236L100.133 79.4855H94.1003L93.1699 82.6257H99.3748L98.2372 86.4371H92.0667L90.55 91.5537C90.3778 92.1183 92.0323 92.1889 92.6183 92.1889L95.7206 91.7654L94.4794 96H87.516C86.965 96 86.5513 95.9294 85.9304 95.7883C85.3441 95.6471 85.0686 95.3648 84.8275 94.9768C84.5856 94.5534 84.1719 94.2356 84.4477 93.3181L86.447 86.5431H83L84.1376 82.6615H87.5846L88.5153 79.521H85.0686L86.1719 75.8153L86.1029 75.7801ZM96.5583 69.0822H102.763L101.626 72.9284H93.1456L92.2149 73.7402C91.8012 74.1285 91.6979 73.9874 91.1806 74.2697C90.6986 74.5162 89.6986 75.0102 88.3884 75.0102H85.6652L86.7682 71.3051H87.5956C88.2852 71.3051 88.7682 71.2342 89.009 71.0934C89.2848 70.9171 89.5953 70.5288 89.9051 69.8933L91.4561 67H97.627L96.5583 69.1173V69.0822ZM108.253 75.434C108.253 75.434 109.942 73.8466 112.838 73.3525C113.493 73.2114 117.629 73.2813 117.629 73.2813L118.25 71.164H109.528L108.253 75.4695L108.253 75.434ZM116.457 77.0573H107.805L107.288 78.8568H114.803C115.699 78.7511 115.871 78.8919 115.94 78.8217L116.491 77.0573H116.457ZM105.22 67.0355H110.494L109.736 69.7528C109.736 69.7528 111.39 68.3767 112.562 67.8824C113.734 67.4589 116.354 67.0355 116.354 67.0355L124.903 67.0003L121.973 76.9516C121.49 78.6454 120.904 79.7395 120.559 80.2686C120.25 80.7627 119.87 81.2212 119.112 81.6447C118.388 82.033 117.732 82.2799 117.112 82.3153C116.561 82.3505 115.664 82.3859 114.492 82.3859H106.254L103.944 90.255C103.738 91.0313 103.634 91.419 103.772 91.6307C103.875 91.8073 104.185 92.019 104.565 92.019L108.184 91.6662L106.943 95.9713H102.875C101.565 95.9713 100.635 95.9362 99.9797 95.9004C99.3595 95.8301 98.7039 95.9004 98.2559 95.5478C97.8768 95.195 97.2912 94.7364 97.3252 94.2771C97.3598 93.8537 97.532 93.1479 97.8082 92.1598L105.22 67.0355Z" fill="#FEFEFE"/>
<path d="M121.073 83.2584L120.588 85.6384C120.381 86.3734 120.207 86.9339 119.652 87.4239C119.063 87.914 118.404 88.439 116.81 88.439L113.864 88.579L113.829 91.2395C113.795 91.9741 114.003 91.9041 114.107 92.0441C114.245 92.1841 114.349 92.2193 114.488 92.2893L115.424 92.219L118.232 92.0793L117.053 96H113.829C111.576 96 109.878 95.9297 109.358 95.5099C108.803 95.1595 108.734 94.7394 108.734 93.9693L108.942 83.5374H114.107L114.037 85.6726H115.285C115.701 85.6726 116.013 85.6378 116.186 85.5326C116.359 85.4274 116.464 85.2525 116.533 85.0077L117.053 83.3274H121.108L121.073 83.2584ZM47.5945 31C47.4213 31.8402 44.0939 47.2778 44.0939 47.2778C43.3657 50.3932 42.8458 52.634 41.1128 54.069C40.1076 54.9092 38.9289 55.2941 37.5773 55.2941C35.3934 55.2941 34.1457 54.2091 33.9377 52.1439L33.9029 51.4437C33.9029 51.4437 34.5614 47.2778 34.5614 47.243C34.5614 47.243 38.0278 33.1704 38.6519 31.3149C38.6864 31.21 38.6864 31.14 38.6864 31.1049C31.927 31.1752 30.7141 31.1049 30.6448 31C30.61 31.14 30.4368 32.015 30.4368 32.015L26.901 47.8734L26.5889 49.2033L26 53.6145C26 54.9095 26.2425 55.9946 26.7627 56.8699C28.3916 59.7404 33.0019 60.1605 35.6014 60.1605C38.9637 60.1605 42.118 59.4252 44.2322 58.1301C47.9411 55.9246 48.9115 52.4591 49.7435 49.4137L50.1595 47.8382C50.1595 47.8382 53.7298 33.2407 54.3538 31.3504C54.3883 31.2452 54.3883 31.1752 54.4232 31.1404C49.501 31.1752 48.0798 31.1404 47.5945 31.0352V31ZM67.3668 60.0178C64.9749 59.9826 64.1083 59.9826 61.3008 60.1226L61.1966 59.9126C61.4391 58.8272 61.7164 57.7774 61.9244 56.692L62.2711 55.2217C62.791 52.9465 63.2763 50.2508 63.3456 49.4459C63.415 48.9558 63.5533 47.7307 62.1669 47.7307C61.5778 47.7307 60.9886 48.0104 60.3649 48.2905C60.0179 49.5159 59.3594 52.9465 59.0127 54.4868C58.3193 57.7774 58.2848 58.1623 57.973 59.7729L57.765 59.9826C55.3041 59.9478 54.4376 59.9478 51.5951 60.0878L51.4565 59.8426C51.9418 57.8822 52.3923 55.9219 52.8432 53.9615C54.0215 48.6754 54.3337 46.6453 54.6452 43.9497L54.8881 43.8097C57.6611 43.4248 58.3197 43.3196 61.3353 42.7246L61.5778 43.0047L61.1272 44.685C61.6471 44.3701 62.1324 44.0549 62.6523 43.8097C64.0735 43.1095 65.6334 42.8995 66.4999 42.8995C67.8169 42.8995 69.273 43.2847 69.8622 44.825C70.4169 46.1901 70.0698 47.8704 69.3075 51.1962L68.9263 52.8765C68.1636 56.5872 68.0253 57.2521 67.6089 59.7726L67.3319 59.9826L67.3668 60.0178ZM77.0995 60.0268C75.6438 60.0268 74.7079 59.992 73.8069 60.0268C72.9055 60.0268 72.039 60.0972 70.6872 60.132L70.6178 60.0268L70.5485 59.8868C70.9297 58.4866 71.1032 57.9965 71.3112 57.5064C71.4843 57.0163 71.6575 56.5262 72.0045 55.0911C72.4202 53.2356 72.6975 51.9405 72.8707 50.7851C73.0787 49.6998 73.1829 48.7551 73.3216 47.6697L73.4254 47.5997L73.5292 47.4949C74.9853 47.2848 75.8866 47.1448 76.8225 47.0048C77.7584 46.8648 78.7287 46.6899 80.2193 46.4098L80.2886 46.5499L80.3231 46.6899L79.4917 50.1554C79.2144 51.3107 78.9371 52.4658 78.6946 53.6212C78.174 56.0716 77.9319 56.9818 77.828 57.6467C77.6894 58.2769 77.6542 58.5921 77.4462 59.8523L77.3075 59.9572L77.1688 60.0623L77.0995 60.0268ZM92.4879 51.426C92.3841 52.0561 91.8294 54.4017 91.1016 55.3819C90.5814 56.1168 89.9922 56.5721 89.2988 56.5721C89.0912 56.5721 87.9121 56.5721 87.878 54.7866C87.878 53.9116 88.0511 53.0011 88.2591 52.0213C88.8832 49.1856 89.6459 46.8403 91.5521 46.8403C93.0426 46.8403 93.1465 48.5906 92.4879 51.426ZM98.7616 51.706C99.5933 47.9954 98.9351 46.245 98.1379 45.1948C96.8899 43.5845 94.6718 43.0596 92.3841 43.0596C90.9971 43.0596 87.7393 43.1996 85.1742 45.5801C83.3373 47.2952 82.4708 49.6408 81.9855 51.8812C81.465 54.1565 80.8761 58.2524 84.6195 59.7927C85.7631 60.2828 87.4271 60.4225 88.5017 60.4225C91.2402 60.4225 94.0478 59.6526 96.162 57.4122C97.7909 55.5919 98.5188 52.8614 98.7961 51.706H98.7616ZM157.188 60.4426C154.276 60.4077 153.444 60.4077 150.775 60.5477L150.601 60.3377C151.329 57.572 152.057 54.7715 152.716 51.971C153.547 48.3303 153.755 46.7901 154.033 44.6548L154.241 44.48C157.118 44.0599 157.915 43.955 160.931 43.3949L161 43.6398C160.445 45.9502 159.925 48.2258 159.371 50.5011C158.262 55.2971 157.88 57.7476 157.465 60.268L157.188 60.4781V60.4426Z" fill="#FEFEFE"/>
<path d="M151.961 51.4858C151.823 52.0691 151.272 54.4029 150.549 55.3639C150.066 56.0503 148.895 56.4967 148.24 56.4967C148.033 56.4967 146.896 56.4967 146.828 54.7806C146.828 53.9224 147 53.0301 147.206 52.0691C147.827 49.3578 148.585 47.0581 150.48 47.0581C151.961 47.0581 152.616 48.7397 151.961 51.5199V51.4858ZM157.646 51.7603C158.473 48.1223 155.097 51.4516 154.58 50.2502C153.753 48.3623 154.269 44.587 150.962 43.3173C149.687 42.8023 146.69 43.4546 144.14 45.7884C142.348 47.4358 141.452 49.7352 140.97 51.9318C140.453 54.1283 139.868 58.1786 143.554 59.5856C144.726 60.1003 145.794 60.2375 146.862 60.1689C150.584 59.963 153.408 54.3684 155.511 52.1719C157.129 50.4216 157.405 52.8241 157.646 51.7603ZM114.383 59.45C112.006 59.4155 111.179 59.4155 108.388 59.5528L108.284 59.3468C108.526 58.2827 108.801 57.2534 109.042 56.1893L109.352 54.7478C109.869 52.517 110.386 49.8741 110.42 49.0849C110.489 48.6044 110.627 47.4033 109.283 47.4033C108.697 47.4033 108.078 47.6776 107.492 47.9521C107.182 49.1535 106.492 52.517 106.148 54.0272C105.493 57.2534 105.424 57.6308 105.114 59.2099L104.908 59.4155C102.461 59.3813 101.6 59.3813 98.7746 59.5186L98.6368 59.2782C99.1192 57.3562 99.567 55.4342 100.015 53.5122C101.187 48.3295 101.463 46.3392 101.806 43.6963L102.013 43.559C104.77 43.1816 105.459 43.0785 108.422 42.4952L108.664 42.7698L108.25 44.4172C108.732 44.1085 109.249 43.7994 109.732 43.559C111.144 42.8726 112.695 42.6666 113.556 42.6666C114.865 42.6666 116.278 43.0443 116.898 44.5545C117.449 45.8928 117.071 47.5403 116.312 50.801L115.933 52.4484C115.141 56.0865 115.038 56.7384 114.623 59.2095L114.348 59.4155L114.383 59.45ZM135.026 31.0342L133.028 31.0686C127.859 31.1373 125.792 31.1028 124.965 31C124.897 31.3777 124.759 32.0296 124.759 32.0296C124.759 32.0296 122.898 40.5413 122.898 40.5755C122.898 40.5755 118.488 58.6972 118.281 59.5551C122.795 59.4864 124.621 59.4864 125.413 59.5895C125.586 58.7313 126.619 53.6863 126.654 53.6863C126.654 53.6863 127.549 49.9796 127.584 49.8423C127.584 49.8423 127.859 49.4646 128.135 49.2931H128.549C132.442 49.2931 136.818 49.2931 140.264 46.7878C142.606 45.0718 144.192 42.4975 144.915 39.4086C145.087 38.6535 145.225 37.7611 145.225 36.8346C145.225 35.6332 144.984 34.4666 144.295 33.5398C142.537 31.1028 139.057 31.0686 135.026 31.0342ZM137.61 39.9236C137.197 41.8111 135.956 43.4243 134.372 44.1794C133.062 44.8314 131.477 44.9 129.823 44.9H128.755L128.824 44.4881C128.824 44.4881 130.788 35.9764 130.788 36.0109L130.857 35.5646L130.892 35.2214L131.684 35.2903C131.684 35.2903 135.75 35.6332 135.819 35.6332C137.403 36.251 138.093 37.8298 137.61 39.9236ZM179.965 42.7698L179.724 42.4952C176.795 43.0785 176.244 43.1816 173.556 43.5593L173.35 43.7649C173.35 43.7994 173.315 43.8339 173.315 43.9022V43.8681C171.317 48.5013 171.351 47.5061 169.732 51.1442C169.732 50.9724 169.732 50.8696 169.697 50.6978L169.284 42.8039L169.043 42.5294C165.942 43.113 165.873 43.2158 163.048 43.5935L162.841 43.7994C162.806 43.9022 162.806 44.0053 162.806 44.1081L162.841 44.1426C163.185 45.9615 163.116 45.5496 163.461 48.3985C163.633 49.8055 163.84 51.2128 164.012 52.5857C164.288 54.9195 164.46 56.052 164.805 59.5872C162.875 62.7445 162.427 63.9459 160.567 66.7254L160.67 67C163.461 66.8975 164.081 66.8975 166.149 66.8975L166.597 66.3825C168.147 63.0539 180 42.8043 180 42.8043L179.965 42.7698ZM79.1742 45.0432C80.759 43.9449 80.9655 42.4348 79.622 41.6455C78.2782 40.856 75.901 41.0964 74.3158 42.1947C72.7309 43.2588 72.5588 44.7686 73.9026 45.5923C75.2117 46.3477 77.589 46.1415 79.1742 45.0432Z" fill="#FEFEFE"/>
<path d="M165.967 67.032L163.718 70.7623C163.013 72.027 161.671 73 159.591 73L156 72.9351L157.04 69.5621H157.745C158.114 69.5621 158.382 69.5298 158.584 69.4323C158.785 69.3675 158.886 69.2377 159.054 69.0431L160.396 67H166L165.967 67.032Z" fill="#FEFEFE"/>
</svg>
