<svg width="16" height="15" viewBox="0 0 16 15" fill="none" xmlns="http://www.w3.org/2000/svg">
<path id="Vector" d="M1.33038 2.55476L1.33037 2.55477C0.25189 3.96653 0.198005 5.96132 1.32102 8.0611C2.42177 10.1193 4.6397 12.2293 7.99974 13.8059C11.3598 12.229 13.5778 10.1188 14.6787 8.06064C15.8018 5.96085 15.7482 3.96624 14.6703 2.55482L1.33038 2.55476ZM1.33038 2.55476C2.37656 1.18526 3.91351 0.905783 5.20798 1.3161C6.52324 1.73301 7.49976 2.82554 7.49976 4.13821H7.99976H8.49976C8.49976 2.82553 9.4763 1.73285 10.7917 1.31588C12.0863 0.905513 13.6235 1.18493 14.6703 2.55471L1.33038 2.55476Z" fill="white" stroke="#788092"/>
</svg>
