<svg width="167" height="167" viewBox="0 0 167 167" fill="none" xmlns="http://www.w3.org/2000/svg">
<g id="color_wheel_default">
<path id="Subtract" fill-rule="evenodd" clip-rule="evenodd" d="M83.5 167C129.616 167 167 129.616 167 83.5C167 37.3842 129.616 0 83.5 0C37.3842 0 0 37.3842 0 83.5C0 129.616 37.3842 167 83.5 167ZM83.5 119.619C103.448 119.619 119.619 103.448 119.619 83.5C119.619 63.5522 103.448 47.3814 83.5 47.3814C63.5522 47.3814 47.3814 63.5522 47.3814 83.5C47.3814 103.448 63.5522 119.619 83.5 119.619Z" fill="#F5E95F"/>
<path id="Subtract_2" fill-rule="evenodd" clip-rule="evenodd" d="M83.5 167C129.616 167 167 129.616 167 83.5C167 37.3842 129.616 0 83.5 0C37.3842 0 0 37.3842 0 83.5C0 129.616 37.3842 167 83.5 167ZM83.5 119.619C103.448 119.619 119.619 103.448 119.619 83.5C119.619 63.5522 103.448 47.3814 83.5 47.3814C63.5522 47.3814 47.3814 63.5522 47.3814 83.5C47.3814 103.448 63.5522 119.619 83.5 119.619Z" fill="#F5E95F"/>
<path id="Subtract_3" fill-rule="evenodd" clip-rule="evenodd" d="M83.5 167C129.616 167 167 129.616 167 83.5C167 37.3842 129.616 0 83.5 0C37.3842 0 0 37.3842 0 83.5C0 129.616 37.3842 167 83.5 167ZM83.5 119.619C103.448 119.619 119.619 103.448 119.619 83.5C119.619 63.5522 103.448 47.3814 83.5 47.3814C63.5522 47.3814 47.3814 63.5522 47.3814 83.5C47.3814 103.448 63.5522 119.619 83.5 119.619Z" fill="#92BF56"/>
<path id="Subtract_4" fill-rule="evenodd" clip-rule="evenodd" d="M119.369 79.2285H119.369C119.534 80.6296 119.619 82.0552 119.619 83.5006C119.619 93.7933 115.313 103.08 108.405 109.659L141.804 143.275C152.653 132.69 160.632 119.176 164.462 104.011L118.435 92.7058C119.207 89.767 119.619 86.6818 119.619 83.5006C119.619 82.0552 119.534 80.6296 119.369 79.2285Z" fill="#F5E95F"/>
<path id="Subtract_5" fill-rule="evenodd" clip-rule="evenodd" d="M83.4999 167C60.2396 167 39.2006 157.489 24.0598 142.144L57.3235 108.387C63.9035 115.306 73.198 119.619 83.4999 119.619C83.8898 119.619 84.2782 119.612 84.665 119.6V166.992C84.2773 166.997 83.8889 167 83.4999 167Z" fill="#65B0CF"/>
<path id="Subtract_6" fill-rule="evenodd" clip-rule="evenodd" d="M24.0598 142.144C14.1328 132.083 6.74123 119.514 2.92139 105.474L48.6363 92.9727C50.226 98.8375 53.2562 104.11 57.3235 108.387L24.0598 142.144Z" fill="#4679B8"/>
<path id="Subtract_7" fill-rule="evenodd" clip-rule="evenodd" d="M2.52318 63.0469C0.875275 69.5917 0 76.4435 0 83.4999C0 91.1048 1.01665 98.4722 2.92148 105.474L48.6364 92.9728C47.8181 89.9538 47.3814 86.7778 47.3814 83.4999C47.3814 80.5427 47.7368 77.6685 48.4072 74.9177L2.52318 63.0469Z" fill="#354B96"/>
<path id="Subtract_8" fill-rule="evenodd" clip-rule="evenodd" d="M57.369 58.5664L24.0035 24.9141C13.7482 35.3276 6.20611 48.4209 2.52319 63.048L48.4072 74.9188C49.9289 68.6749 53.0736 63.0667 57.369 58.5664Z" fill="#7B5097"/>
<path id="Subtract_9" fill-rule="evenodd" clip-rule="evenodd" d="M73.4351 48.8019L61.5161 2.92383C47.0803 6.85317 34.2006 14.5583 24.0034 24.9128L57.3689 58.5651L57.3689 58.5652C61.711 54.016 67.229 50.599 73.4351 48.8019Z" fill="#D85790"/>
<path id="Subtract_10" fill-rule="evenodd" clip-rule="evenodd" d="M83.5001 0C90.5594 0 97.4142 0.876034 103.962 2.52532L92.322 48.4665C89.4986 47.7578 86.5433 47.3814 83.5001 47.3814C80.0072 47.3814 76.63 47.8772 73.4353 48.8023L61.5217 2.94523C68.4976 1.02511 75.8636 0 83.5001 0Z" fill="#DA4E3F"/>
<path id="Subtract_11" fill-rule="evenodd" clip-rule="evenodd" d="M141.799 23.7212C131.434 13.6117 118.451 6.17518 103.962 2.52539L92.322 48.4666C98.5215 50.0227 104.085 53.1813 108.547 57.4764L141.799 23.7212Z" fill="#DF8141"/>
<path id="Subtract_12" fill-rule="evenodd" clip-rule="evenodd" d="M108.546 57.4759C113.139 61.8967 116.563 67.5215 118.313 73.8424L164.03 61.3484C160.05 46.8469 152.258 33.9228 141.799 23.7207L108.546 57.4759Z" fill="#E6A54B"/>
<path id="Subtract_13" fill-rule="evenodd" clip-rule="evenodd" d="M164.03 61.3496C165.966 68.404 167 75.8315 167 83.5007C167 90.5778 166.119 97.4492 164.462 104.012L118.435 92.7059C119.207 89.7671 119.618 86.682 119.618 83.5008C119.618 80.156 119.164 76.9175 118.313 73.8436L164.03 61.3496Z" fill="#F1CF54"/>
<path id="Subtract_14" fill-rule="evenodd" clip-rule="evenodd" d="M92.486 118.491C89.6131 119.227 86.6023 119.618 83.5001 119.618C79.8749 119.618 76.3743 119.084 73.073 118.09L61.0513 163.947C68.1943 165.936 75.723 166.999 83.5001 166.999C90.1275 166.999 96.5746 166.227 102.756 164.768L92.486 118.491Z" fill="#6EB356"/>
</g>
</svg>
