<svg width="52" height="27" viewBox="0 0 52 27" fill="none" xmlns="http://www.w3.org/2000/svg">
<g id="Group">
<path id="Vector" d="M25.621 0C11.496 0 0 11.496 0 25.621C0 26.092 0.384 26.475 0.854 26.475C1.324 26.475 1.708 26.091 1.708 25.621C1.708 12.435 12.435 1.708 25.621 1.708C38.809 1.708 49.535 12.435 49.535 25.621C49.535 26.092 49.92 26.475 50.389 26.475C50.86 26.475 51.243 26.091 51.243 25.621C51.243 11.496 39.748 0 25.621 0Z" fill="#FA5A5A"/>
<path id="Vector_2" d="M25.6208 5.21777C14.3648 5.21777 5.21777 14.3648 5.21777 25.6208C5.21777 26.0918 5.60177 26.4748 6.07177 26.4748C6.54177 26.4748 6.92577 26.0908 6.92577 25.6208C6.92577 15.3118 15.3128 6.92577 25.6208 6.92577C35.9298 6.92577 44.3158 15.3118 44.3158 25.6208C44.3158 26.0918 44.7008 26.4748 45.1698 26.4748C45.6408 26.4748 46.0248 26.0908 46.0248 25.6208C46.0248 14.3648 36.8778 5.21777 25.6208 5.21777Z" fill="#FA5A5A"/>
<path id="Vector_3" d="M25.6212 10.4282C17.2432 10.4282 10.4282 17.2432 10.4282 25.6212C10.4282 26.0922 10.8122 26.4752 11.2822 26.4752C11.7512 26.4752 12.1362 26.0912 12.1362 25.6212C12.1362 18.1832 18.1832 12.1362 25.6212 12.1362C33.0602 12.1362 39.1072 18.1832 39.1072 25.6212C39.1072 26.0922 39.4912 26.4752 39.9612 26.4752C40.4312 26.4752 40.8152 26.0912 40.8152 25.6212C40.8142 17.2432 34.0002 10.4282 25.6212 10.4282Z" fill="#FFE538"/>
<path id="Vector_4" d="M25.621 15.646C20.121 15.646 15.646 20.121 15.646 25.621C15.646 26.092 16.03 26.475 16.5 26.475C16.97 26.475 17.354 26.091 17.354 25.621C17.354 21.06 21.061 17.354 25.621 17.354C30.182 17.354 33.889 21.06 33.889 25.621C33.889 26.092 34.274 26.475 34.743 26.475C35.214 26.475 35.597 26.091 35.597 25.621C35.597 20.121 31.121 15.646 25.621 15.646Z" fill="#FFE538"/>
<path id="Vector_5" d="M25.621 20.855C22.991 20.855 20.856 22.991 20.856 25.621C20.856 26.092 21.24 26.475 21.71 26.475C22.18 26.475 22.564 26.091 22.564 25.621C22.564 23.939 23.939 22.564 25.621 22.564C27.304 22.564 28.679 23.939 28.679 25.621C28.679 26.092 29.063 26.475 29.533 26.475C30.003 26.475 30.387 26.091 30.387 25.621C30.387 22.991 28.252 20.855 25.621 20.855Z" fill="#4EB7D9"/>
</g>
</svg>
